HIERARCHY
ROOT Hips
{
	OFFSET 54.231899 -13.339015 95.722504
	CHANNELS 6 Xposition Yposition Zposition Xrotation Yrotation Zrotation
	JOINT spine
	{
		OFFSET 0.000000 -0.458069 7.965683
		CHANNELS 3 Xrotation Yrotation Zrotation
		JOINT spine1
		{
			OFFSET 0.000000 -0.000001 10.243103
			CHANNELS 3 Xrotation Yrotation Zrotation
			JOINT spine2
			{
				OFFSET 0.000000 -0.000002 9.814751
				CHANNELS 3 Xrotation Yrotation Zrotation
				JOINT Neck
				{
					OFFSET 0.000000 -1.201384 25.198601
					CHANNELS 3 Xrotation Yrotation Zrotation
					JOINT Head
					{
						OFFSET 0.000000 -0.000002 7.613144
						CHANNELS 3 Xrotation Yrotation Zrotation
						End Site
						{
							OFFSET 0.000000 6.077328 18.428101
						}
					}
				}
				JOINT RightShoulder
				{
					OFFSET -4.132702 0.575449 10.599205
					CHANNELS 3 Xrotation Yrotation Zrotation
					JOINT RightArm
					{
						OFFSET 0.000000 -0.000002 13.901794
						CHANNELS 3 Xrotation Yrotation Zrotation
						JOINT RightArmRoll
						{
							OFFSET 0.000000 -0.000002 7.017883
							CHANNELS 3 Xrotation Yrotation Zrotation
							JOINT RightForeArm
							{
								OFFSET 0.000000 -0.000003 20.440598
								CHANNELS 3 Xrotation Yrotation Zrotation
								JOINT RightForeArmRoll
								{
									OFFSET 0.000000 -0.000001 7.875153
									CHANNELS 3 Xrotation Yrotation Zrotation
									JOINT RightHand
									{
										OFFSET 0.000000 -0.000003 15.803696
										CHANNELS 3 Xrotation Yrotation Zrotation
										End Site
										{
											OFFSET 0.000000 0.000000 0.100006
										}
									}
								}
							}
						}
					}
				}
				JOINT LeftShoulder
				{
					OFFSET 4.132702 0.575449 10.599205
					CHANNELS 3 Xrotation Yrotation Zrotation
					JOINT LeftArm
					{
						OFFSET 0.000000 -0.000002 13.901794
						CHANNELS 3 Xrotation Yrotation Zrotation
						JOINT LeftArmRoll
						{
							OFFSET 0.000000 -0.000002 7.017883
							CHANNELS 3 Xrotation Yrotation Zrotation
							JOINT LeftForeArm
							{
								OFFSET 0.000000 -0.000003 20.440598
								CHANNELS 3 Xrotation Yrotation Zrotation
								JOINT LeftForeArmRoll
								{
									OFFSET 0.000000 -0.000001 7.875153
									CHANNELS 3 Xrotation Yrotation Zrotation
									JOINT LeftHand
									{
										OFFSET 0.000000 -0.000003 15.803696
										CHANNELS 3 Xrotation Yrotation Zrotation
										End Site
										{
											OFFSET 0.000000 0.000000 0.100006
										}
									}
								}
							}
						}
					}
				}
			}
		}
	}
	JOINT RightUpLeg
	{
		OFFSET -7.060482 1.086100 -1.294701
		CHANNELS 3 Xrotation Yrotation Zrotation
		JOINT RightUpLegRoll
		{
			OFFSET 0.000000 -0.000003 18.530800
			CHANNELS 3 Xrotation Yrotation Zrotation
			JOINT RightLeg
			{
				OFFSET 0.000000 0.000004 -22.947601
				CHANNELS 3 Xrotation Yrotation Zrotation
				JOINT RightLegRoll
				{
					OFFSET 0.000000 -0.000004 23.022598
					CHANNELS 3 Xrotation Yrotation Zrotation
					JOINT RightFoot
					{
						OFFSET 0.000000 -0.000004 19.162506
						CHANNELS 3 Xrotation Yrotation Zrotation
						JOINT RightToeBase
						{
							OFFSET 0.000000 -0.000002 16.018799
							CHANNELS 3 Xrotation Yrotation Zrotation
							End Site
							{
								OFFSET 0.006790 0.894205 7.757812
							}
						}
					}
				}
			}
		}
	}
	JOINT LeftUpLeg
	{
		OFFSET 7.060482 1.086100 -1.294701
		CHANNELS 3 Xrotation Yrotation Zrotation
		JOINT LeftUpLegRoll
		{
			OFFSET 0.000000 -0.000003 18.530899
			CHANNELS 3 Xrotation Yrotation Zrotation
			JOINT LeftLeg
			{
				OFFSET 0.000000 -0.000004 22.947502
				CHANNELS 3 Xrotation Yrotation Zrotation
				JOINT LeftLegRoll
				{
					OFFSET 0.000000 -0.000004 23.235504
					CHANNELS 3 Xrotation Yrotation Zrotation
					JOINT LeftFoot
					{
						OFFSET 0.000000 -0.000003 18.949600
						CHANNELS 3 Xrotation Yrotation Zrotation
						JOINT LeftToeBase
						{
							OFFSET 0.000000 -0.000003 16.018799
							CHANNELS 3 Xrotation Yrotation Zrotation
							End Site
							{
								OFFSET -0.030430 0.894205 7.757812
							}
						}
					}
				}
			}
		}
	}
}
MOTION
Frames: 4
Frame Time: 0.041667
53.411594 -13.809615 95.659500 -2.851844 0.988715 1.093431 -2.133463 -0.186116 0.016041 -0.246151 -0.384012 0.033851 1.398942 -0.383660 0.038394 27.349865 -0.642999 -0.045188 -4.063878 0.991968 -0.163538 11.879819 -73.207784 11.191851 -50.625359 -111.865672 -19.880807 0.000002 0.000008 -0.000001 -0.035377 4.062321 0.341290 -0.000005 0.000005 -3.087181 -5.000153 -7.999911 0.000006 4.322585 72.121873 -3.156561 -53.078401 114.598608 29.293209 0.000001 -0.000006 0.000002 -0.003699 -0.676586 -0.409096 -0.000005 0.000007 3.008371 -5.000135 8.000091 -0.000016 4.837312 -176.545309 -2.036666 -179.999991 0.000006 -1.211001 175.732120 -2.209855 -0.563874 0.000000 0.000000 0.061567 69.593351 6.951262 1.934332 25.932184 -7.354467 0.704756 1.985028 173.296994 -0.226820 -0.000005 -0.000005 -1.150920 -6.620104 1.883934 0.371944 -0.000005 0.000003 -0.076797 70.177380 -6.680928 -2.613251 25.456957 7.355613 -0.000001 
53.412098 -13.811313 95.660889 -2.843914 0.989433 1.088150 -2.135042 -0.185380 0.015742 -0.252355 -0.382226 0.032706 1.392742 -0.381874 0.037223 27.337665 -0.642405 -0.043842 -4.033339 0.991918 -0.162317 11.913376 -73.224969 11.225190 -50.767734 -111.834533 -19.873093 0.000001 0.000008 0.000000 -0.035804 4.204661 0.358314 -0.000005 0.000006 -3.087930 -5.000153 -7.999911 0.000012 4.307274 72.123014 -3.139795 -53.079637 114.602200 29.290778 -0.000003 -0.000007 0.000001 -0.003699 -0.682671 -0.409067 -0.000005 0.000006 3.008371 -5.000133 8.000091 -0.000014 4.832004 -176.543301 -2.036109 -179.999991 0.000006 -1.211001 175.740207 -2.210887 -0.563637 0.000000 0.000000 0.061571 69.586999 6.951268 1.934332 25.931988 -7.354463 0.705381 1.980647 173.297978 -0.226049 -0.000005 -0.000004 -1.150920 -6.616975 1.884621 0.371943 -0.000005 0.000004 -0.076797 70.178595 -6.681735 -2.609720 25.456955 7.355613 -0.000001 
53.411095 -13.811414 95.660004 -2.836034 0.990115 1.082827 -2.136572 -0.184648 0.015437 -0.258602 -0.380437 0.031538 1.386490 -0.380087 0.036028 27.326661 -0.641819 -0.042345 -4.003252 0.991952 -0.160956 11.946932 -73.242256 11.258507 -50.910505 -111.805006 -19.864509 0.000004 0.000008 -0.000001 -0.036229 4.349082 0.375544 -0.000006 0.000005 -3.088690 -5.000156 -7.999910 0.000008 4.294257 72.124899 -3.125446 -53.080433 114.605547 29.287445 0.000001 -0.000007 0.000003 -0.003696 -0.688571 -0.409016 -0.000004 0.000007 3.008370 -5.000136 8.000089 -0.000016 4.826771 -176.542263 -2.035499 -179.999991 0.000005 -1.211001 175.748390 -2.211905 -0.563395 0.000000 0.000000 0.061580 69.580537 6.951270 1.934237 25.931780 -7.354465 0.706051 1.976479 173.299945 -0.225232 -0.000005 -0.000004 -1.150920 -6.613646 1.885339 0.371945 -0.000005 0.000004 -0.076797 70.179839 -6.682612 -2.606099 25.456957 7.355612 -0.000000 
53.409595 -13.809411 95.660492 -2.828196 0.990769 1.077473 -2.138053 -0.183918 0.015128 -0.264879 -0.378646 0.030352 1.380210 -0.378296 0.034816 27.316358 -0.641238 -0.040746 -3.973492 0.992045 -0.159496 11.980601 -73.259653 11.291932 -51.052966 -111.776777 -19.854675 0.000003 0.000008 0.000001 -0.036648 4.494971 0.392910 -0.000005 0.000005 -3.089462 -5.000154 -7.999911 0.000009 4.282786 72.127262 -3.112732 -53.082680 114.608156 29.285338 0.000000 -0.000006 0.000003 -0.003696 -0.694346 -0.408957 -0.000007 0.000007 3.008374 -5.000134 8.000090 -0.000015 4.821589 -176.540255 -2.034714 -179.999991 0.000005 -1.211001 175.756600 -2.213918 -0.563225 0.000000 0.000000 0.061594 69.573871 6.951263 1.934355 25.931573 -7.354469 0.706761 1.972467 173.300928 -0.224441 -0.000005 -0.000005 -1.150920 -6.610167 1.886067 0.371944 -0.000004 0.000003 -0.076796 70.181082 -6.683522 -2.602284 25.456952 7.355613 -0.000001 
